<svg xmlns="http://www.w3.org/2000/svg" viewBox="0 0 200 200" width="100%" height="100%">
  <defs>
    <linearGradient id="goldGrad" x1="0%" y1="0%" x2="100%" y2="100%">
      <stop offset="0%" stop-color="#F3E5AB"/>
      <stop offset="50%" stop-color="#D4A017"/>
      <stop offset="100%" stop-color="#B8860B"/>
    </linearGradient>
    <linearGradient id="navyGrad" x1="0%" y1="0%" x2="100%" y2="100%">
      <stop offset="0%" stop-color="#162f4a"/>
      <stop offset="100%" stop-color="#060f1a"/>
    </linearGradient>
  </defs>
  <circle cx="100" cy="100" r="95" fill="url(#navyGrad)" stroke="url(#goldGrad)" stroke-width="4"/>
  <circle cx="100" cy="100" r="85" fill="none" stroke="url(#goldGrad)" stroke-width="1.5" stroke-dasharray="4 3"/>
  <!-- Temple Tower Silhouette -->
  <path d="M 100 35 L 115 65 L 112 65 L 122 95 L 118 95 L 130 135 L 70 135 L 82 95 L 78 95 L 88 65 L 85 65 Z" fill="url(#goldGrad)" opacity="0.9"/>
  <!-- Kalasam / Pinnacle -->
  <path d="M 100 25 L 104 35 L 96 35 Z" fill="#F3E5AB"/>
  <!-- Scale of Justice Overlay -->
  <line x1="100" y1="65" x2="100" y2="145" stroke="#ffffff" stroke-width="3"/>
  <line x1="65" y1="85" x2="135" y2="85" stroke="#ffffff" stroke-width="3"/>
  <polygon points="65,85 55,110 75,110" fill="none" stroke="#F3E5AB" stroke-width="2"/>
  <polygon points="135,85 125,110 145,110" fill="none" stroke="#F3E5AB" stroke-width="2"/>
  <!-- Circular text ribbon -->
  <text x="100" y="165" text-anchor="middle" font-family="'Inter', sans-serif" font-weight="800" font-size="11" fill="#F3E5AB" letter-spacing="1.5">PRAJA SEVA PORTAL</text>
  <text x="100" y="180" text-anchor="middle" font-family="'Inter', sans-serif" font-weight="600" font-size="9" fill="#94a3b8">SRIKALAHASTI · NO. 168</text>
</svg>
